<?xml version="1.0" encoding="UTF-8" standalone="no"?>
<!-- Generator: Adobe Illustrator 20.1.0, SVG Export Plug-In . SVG Version: 6.00 Build 0)  -->

<svg
   xmlns:dc="http://purl.org/dc/elements/1.1/"
   xmlns:cc="http://creativecommons.org/ns#"
   xmlns:rdf="http://www.w3.org/1999/02/22-rdf-syntax-ns#"
   xmlns:svg="http://www.w3.org/2000/svg"
   xmlns="http://www.w3.org/2000/svg"
   xmlns:sodipodi="http://sodipodi.sourceforge.net/DTD/sodipodi-0.dtd"
   xmlns:inkscape="http://www.inkscape.org/namespaces/inkscape"
   version="1.1"
   id="Layer_1"
   x="0px"
   y="0px"
   viewBox="0 0 600 340"
   style="enable-background:new 0 0 600 340;"
   xml:space="preserve"
   sodipodi:docname="Devops-toolchain.svg"
   inkscape:version="0.92.5 (2060ec1f9f, 2020-04-08)"><metadata
   id="metadata197"><rdf:RDF><cc:Work
       rdf:about=""><dc:format>image/svg+xml</dc:format><dc:type
         rdf:resource="http://purl.org/dc/dcmitype/StillImage" /></cc:Work></rdf:RDF></metadata><defs
   id="defs195" /><sodipodi:namedview
   pagecolor="#ffffff"
   bordercolor="#666666"
   borderopacity="1"
   objecttolerance="10"
   gridtolerance="10"
   guidetolerance="10"
   inkscape:pageopacity="0"
   inkscape:pageshadow="2"
   inkscape:window-width="1848"
   inkscape:window-height="1016"
   id="namedview193"
   showgrid="false"
   showguides="false"
   inkscape:zoom="1.3882353"
   inkscape:cx="225.60795"
   inkscape:cy="163.81527"
   inkscape:window-x="72"
   inkscape:window-y="27"
   inkscape:window-maximized="1"
   inkscape:current-layer="g190" />
<style
   type="text/css"
   id="style2">
	.st0{fill:#353535;}
	.st1{fill:#19838E;}
	.st2{fill:#3737AA;}
	.st3{fill:#8B9B29;}
	.st4{fill:none;}
	.st5{fill:#3FA9F5;}
	.st6{fill:#F15A24;}
	.st7{fill:#9263AB;}
	.st8{fill:#AA2E2E;}
	.st9{fill:#FFFFFF;}
</style>
<g
   id="g190">
	<g
   id="g10">
		<path
   class="st0"
   d="m 158.9,167.9 c 0,3 -0.9,5.3 -2.6,6.9 -1.7,1.6 -4.2,2.4 -7.4,2.4 h -5.2 v -18.3 h 5.8 c 3,0 5.3,0.8 7,2.4 1.6,1.6 2.4,3.8 2.4,6.6 z m -4,0.1 c 0,-3.9 -1.7,-5.9 -5.2,-5.9 h -2.1 V 174 h 1.7 c 3.7,0 5.6,-2 5.6,-6 z"
   id="path4"
   inkscape:connector-curvature="0"
   style="fill:#353535" />
		<path
   class="st0"
   d="m 175.2,177.2 h -10.5 v -18.3 h 10.5 v 3.2 h -6.7 v 4 h 6.2 v 3.2 h -6.2 v 4.7 h 6.7 z"
   id="path6"
   inkscape:connector-curvature="0"
   style="fill:#353535" />
		<path
   class="st0"
   d="m 191.4,158.9 h 3.9 l -6.2,18.3 h -4.2 l -6.2,-18.3 h 3.9 l 3.4,10.9 c 0.2,0.6 0.4,1.4 0.6,2.2 0.2,0.9 0.3,1.5 0.4,1.8 0.1,-0.8 0.4,-2.1 0.9,-4 z"
   id="path8"
   inkscape:connector-curvature="0"
   style="fill:#353535" />
	</g>
	<g
   id="g18">
		<path
   class="st0"
   d="m 421.4,168.1 c 0,3 -0.8,5.4 -2.3,7 -1.5,1.6 -3.7,2.4 -6.5,2.4 -2.8,0 -5,-0.8 -6.5,-2.4 -1.5,-1.6 -2.3,-4 -2.3,-7 0,-3 0.8,-5.4 2.3,-7 1.5,-1.6 3.7,-2.4 6.5,-2.4 2.8,0 5,0.8 6.5,2.4 1.5,1.6 2.3,3.9 2.3,7 z m -13.4,0 c 0,2 0.4,3.6 1.2,4.6 0.8,1 1.9,1.6 3.5,1.6 3.1,0 4.6,-2.1 4.6,-6.2 0,-4.1 -1.5,-6.2 -4.6,-6.2 -1.5,0 -2.7,0.5 -3.5,1.6 -0.8,1 -1.2,2.5 -1.2,4.6 z"
   id="path12"
   inkscape:connector-curvature="0"
   style="fill:#353535" />
		<path
   class="st0"
   d="m 439.8,164.6 c 0,2 -0.6,3.5 -1.8,4.5 -1.2,1 -3,1.6 -5.3,1.6 H 431 v 6.5 h -3.9 v -18.3 h 5.9 c 2.2,0 3.9,0.5 5.1,1.4 1.1,1 1.7,2.4 1.7,4.3 z m -8.8,2.9 h 1.3 c 1.2,0 2.1,-0.2 2.7,-0.7 0.6,-0.5 0.9,-1.2 0.9,-2.1 0,-0.9 -0.2,-1.6 -0.7,-2 -0.5,-0.4 -1.3,-0.7 -2.3,-0.7 H 431 Z"
   id="path14"
   inkscape:connector-curvature="0"
   style="fill:#353535" />
		<path
   class="st0"
   d="m 456,172.1 c 0,1.7 -0.6,3 -1.8,3.9 -1.2,1 -2.8,1.4 -5,1.4 -2,0 -3.7,-0.4 -5.2,-1.1 v -3.6 c 1.2,0.6 2.3,0.9 3.1,1.2 0.9,0.2 1.6,0.3 2.3,0.3 0.9,0 1.5,-0.2 2,-0.5 0.5,-0.3 0.7,-0.8 0.7,-1.5 0,-0.4 -0.1,-0.7 -0.3,-1 -0.2,-0.3 -0.5,-0.5 -0.9,-0.8 -0.4,-0.3 -1.2,-0.7 -2.4,-1.2 -1.1,-0.5 -2,-1 -2.5,-1.5 -0.5,-0.5 -1,-1 -1.3,-1.7 -0.3,-0.6 -0.5,-1.4 -0.5,-2.3 0,-1.6 0.5,-2.9 1.6,-3.8 1.1,-0.9 2.6,-1.4 4.6,-1.4 1,0 1.9,0.1 2.7,0.3 0.9,0.2 1.8,0.5 2.7,1 l -1.3,3 c -1,-0.4 -1.8,-0.7 -2.4,-0.8 -0.6,-0.2 -1.3,-0.2 -1.9,-0.2 -0.7,0 -1.3,0.2 -1.7,0.5 -0.4,0.3 -0.6,0.8 -0.6,1.3 0,0.3 0.1,0.6 0.2,0.9 0.2,0.3 0.4,0.5 0.8,0.7 0.3,0.2 1.2,0.7 2.5,1.3 1.7,0.8 2.9,1.6 3.5,2.5 0.6,0.9 1.1,2 1.1,3.1 z"
   id="path16"
   inkscape:connector-curvature="0"
   style="fill:#353535" />
	</g>
	<g
   id="g22">
		<path
   class="st1"
   d="m 180.2,75.6 c 47.4,5.4 84.2,45.6 84.2,94.4 0,-38.8 13.3,-74.6 35.6,-102.9 C 271.6,31.1 228.7,7.2 180.2,4 l -13.9,35.8 z"
   id="path20"
   inkscape:connector-curvature="0"
   style="fill:#19838e" />
	</g>
	<g
   id="g26">
		<path
   class="st2"
   d="m 159.3,264.5 c -47.8,-5 -85,-45.4 -85,-94.5 0,-0.5 0,-1.1 0,-1.6 L 39.1,182.1 3,168.1 c 0,0.6 0,1.3 0,1.9 0,88.6 69.3,161 156.6,166 l 13.7,-35.4 z"
   id="path24"
   inkscape:connector-curvature="0"
   style="fill:#3737aa" />
	</g>
	<g
   id="g30">
		<path
   class="st0"
   d="m 336,177 c 0,0 0,0 0,0 0,0 0,0 0,0 z"
   id="path28"
   inkscape:connector-curvature="0"
   style="fill:#353535" />
	</g>
	<g
   id="g34">
		<path
   class="st0"
   d="m 335.7,173.5 c 0,-1.2 -0.1,-2.3 -0.1,-3.5 0,1.2 0,2.3 0,3.5 0,0 0,0 0,0 z"
   id="path32"
   inkscape:connector-curvature="0"
   style="fill:#353535" />
	</g>
	<g
   id="g38">
		<path
   class="st3"
   d="m 74.7,161.1 c 4.5,-48.3 45.1,-86.2 94.6,-86.2 1.2,0 2.3,0 3.5,0.1 l -13.7,-35.2 14,-36.1 h -3.8 C 80.5,3.7 7.9,73.3 3.2,161 l 38.781356,13.17966 z"
   id="path36"
   inkscape:connector-curvature="0"
   style="fill:#8b9b29"
   sodipodi:nodetypes="cscccsccc" />
	</g>
	<g
   id="g42">
		<polygon
   class="st4"
   points="266,180.3 264.7,180.8 "
   id="polygon40"
   style="fill:none" />
	</g>
	<g
   id="g56">
		<g
   id="g46">
			<path
   class="st5"
   d="m 264.7,180.8 v 0 c 0,0 0,-0.1 0,-0.1 z"
   id="path44"
   inkscape:connector-curvature="0"
   style="fill:#3fa9f5" />
		</g>
		<g
   id="g50">
			<path
   class="st5"
   d="m 335.3,180.5 -34.8,-13.5 -34,13.2 v 0 l -0.5,0.2 -1.3,0.5 c 0,0 0,0 0,0.1 0,0 0,0 0,0 l -1,0.4 c -5.6,47.2 -45.7,83.8 -94.4,83.8 -0.9,0 -1.8,0 -2.7,0 l 13.8,35.7 -13.8,35.6 c 0.9,0 1.8,0 2.7,0 53,0 100.2,-24.8 130.7,-63.4 0,0 0,-0.1 0,-0.1 20.3,-25.9 33.1,-57.8 35.3,-92.5 z"
   id="path48"
   inkscape:connector-curvature="0"
   style="fill:#3fa9f5" />
		</g>
		<g
   id="g54">
			<path
   class="st5"
   d="m 264.7,180.7 c 0,0 0,0 0,0 z"
   id="path52"
   inkscape:connector-curvature="0"
   style="fill:#3fa9f5" />
		</g>
	</g>
	<g
   id="g70">
		<g
   id="g60">
			<polygon
   class="st6"
   points=""
   id="polygon58"
   style="fill:#f15a24" />
		</g>
		<g
   id="g64">
			<path
   class="st6"
   d="m 264.4,173.9 v 0 c 0,-0.1 0,0 0,0 z"
   id="path62"
   inkscape:connector-curvature="0"
   style="fill:#f15a24" />
		</g>
		<g
   id="g68">
			<path
   class="st6"
   d="m 458.8,6.1 c -9.2,-1.6 -18.6,-2.4 -28.1,-2.4 -53,0 -100.2,24.8 -130.7,63.4 -22.3,28.3 -35.6,64 -35.6,102.9 0,1.3 0,2.6 0,3.8 l 36.1,-14 35.1,13.6 c 0,-1.2 0,-2.3 0,-3.5 0,-52.5 42.6,-95 95,-95 4.3,0 8.5,0.3 12.7,0.8 l 21.1,-31.3 z"
   id="path66"
   inkscape:connector-curvature="0"
   style="fill:#f15a24" />
		</g>
	</g>
	<g
   id="g74">
		<path
   class="st7"
   d="m 594.5,198.8 c 1.6,-9.4 2.5,-19 2.5,-28.8 C 597,90.2 540.8,23.5 465.7,7.4 l 5.7,38.7 -20.9,31 c 43,9.1 75.2,47.3 75.2,93 0,4.2 -0.3,8.4 -0.8,12.5 l 32.2,21.8 z"
   id="path72"
   inkscape:connector-curvature="0"
   style="fill:#9263ab" />
	</g>
	<g
   id="g78">
		<path
   class="st8"
   d="m 523.7,189.7 c -9.1,43 -47.3,75.4 -93,75.4 -4.2,0 -8.3,-0.3 -12.4,-0.8 l -21.9,32.7 5.6,36.9 c 9.3,1.6 18.9,2.5 28.7,2.5 79.6,0 146.1,-55.9 162.5,-130.6 l -37.6,5.5 z"
   id="path76"
   inkscape:connector-curvature="0"
   style="fill:#aa2e2e" />
	</g>
	<g
   id="g82">
		<path
   class="st1"
   d="m 411.1,263 c -39.7,-8.3 -70.2,-41.3 -74.9,-82.2 l -0.9,-0.4 c -2.2,34.8 -15,66.7 -35.3,92.4 23.4,29.7 56.8,51.2 95,59.6 l -5.6,-37.1 z"
   id="path80"
   inkscape:connector-curvature="0"
   style="fill:#19838e" />
	</g>
	
	<g
   id="g108">
		
		
		
		
	<text
   xml:space="preserve"
   style="font-style:normal;font-weight:normal;font-size:40px;line-height:1.25;font-family:sans-serif;letter-spacing:0px;word-spacing:0px;fill:#000000;fill-opacity:1;stroke:none"
   x="188.91396"
   y="-7.507659"
   id="text3904"
   transform="rotate(20.357212)"><tspan
     sodipodi:role="line"
     id="tspan3902"
     x="188.91396"
     y="27.882965"
     style="fill:#ffffff" /></text>
<flowRoot
   xml:space="preserve"
   id="flowRoot3906"
   style="font-style:normal;font-weight:normal;font-size:40px;line-height:1.25;font-family:sans-serif;letter-spacing:0px;word-spacing:0px;fill:#000000;fill-opacity:1;stroke:none"><flowRegion
     id="flowRegion3908"><rect
       id="rect3910"
       width="93.721611"
       height="69.272491"
       x="197.121"
       y="32.857983" /></flowRegion><flowPara
     id="flowPara3912"></flowPara></flowRoot></g>
	
	
	
	
	
<text
   xml:space="preserve"
   style="font-style:normal;font-weight:normal;font-size:40px;line-height:1.25;font-family:sans-serif;letter-spacing:0px;word-spacing:0px;fill:#000000;fill-opacity:1;stroke:none"
   x="199.66779"
   y="56.797741"
   id="text3916"><tspan
     sodipodi:role="line"
     id="tspan3914"
     x="199.66779"
     y="92.18837"></tspan></text>
<text
   xml:space="preserve"
   style="font-style:normal;font-weight:normal;font-size:43.83876038px;line-height:1.25;font-family:sans-serif;letter-spacing:0px;word-spacing:0px;fill:#000000;fill-opacity:1;stroke:none;stroke-width:1.09596908"
   x="220.09288"
   y="-70.602715"
   id="text3920"
   transform="matrix(0.76457179,0.53179428,-0.61310756,0.8814776,0,0)"><tspan
     sodipodi:role="line"
     id="tspan3918"
     x="220.09288"
     y="-70.602715"
     style="font-style:normal;font-variant:normal;font-weight:bold;font-stretch:normal;font-size:16px;font-family:sans-serif;-inkscape-font-specification:'sans-serif, Bold';font-variant-ligatures:normal;font-variant-caps:normal;font-variant-numeric:normal;font-feature-settings:normal;text-align:start;writing-mode:lr-tb;text-anchor:start;fill:#ffffff;stroke-width:1.09596908">PLAN</tspan></text>
<text
   xml:space="preserve"
   style="font-style:normal;font-weight:normal;font-size:43.83876038px;line-height:1.25;font-family:sans-serif;letter-spacing:0px;word-spacing:0px;fill:#000000;fill-opacity:1;stroke:none;stroke-width:1.09596908"
   x="-55.123753"
   y="114.50491"
   id="text3920-3"
   transform="matrix(0.55426873,-0.74843928,0.86287838,0.63901842,0,0)"
   inkscape:transform-center-x="6.6817238"
   inkscape:transform-center-y="19.630834"><tspan
     sodipodi:role="line"
     id="tspan3918-9"
     x="-55.123753"
     y="114.50491"
     style="font-style:normal;font-variant:normal;font-weight:bold;font-stretch:normal;font-size:16px;font-family:sans-serif;-inkscape-font-specification:'sans-serif, Bold';font-variant-ligatures:normal;font-variant-caps:normal;font-variant-numeric:normal;font-feature-settings:normal;text-align:start;writing-mode:lr-tb;text-anchor:start;fill:#ffffff;stroke-width:1.09596908">CODE</tspan></text>
<text
   xml:space="preserve"
   style="font-style:normal;font-weight:normal;font-size:43.83876038px;line-height:1.25;font-family:sans-serif;letter-spacing:0px;word-spacing:0px;fill:#000000;fill-opacity:1;stroke:none;stroke-width:1.09596908"
   x="234.578"
   y="132.48677"
   id="text3920-3-8"
   transform="matrix(0.67976368,0.63662903,-0.73397191,0.78370203,0,0)"
   inkscape:transform-center-x="18.738013"
   inkscape:transform-center-y="-8.8907265"><tspan
     sodipodi:role="line"
     id="tspan3918-9-1"
     x="234.578"
     y="132.48677"
     style="font-style:normal;font-variant:normal;font-weight:bold;font-stretch:normal;font-size:16px;font-family:sans-serif;-inkscape-font-specification:'sans-serif, Bold';font-variant-ligatures:normal;font-variant-caps:normal;font-variant-numeric:normal;font-feature-settings:normal;text-align:start;writing-mode:lr-tb;text-anchor:start;fill:#ffffff;stroke-width:1.09596908">BUILD</tspan></text>
<text
   xml:space="preserve"
   style="font-style:normal;font-weight:normal;font-size:43.83876038px;line-height:1.25;font-family:sans-serif;letter-spacing:0px;word-spacing:0px;fill:#000000;fill-opacity:1;stroke:none;stroke-width:1.09596908"
   x="-17.407822"
   y="344.73779"
   id="text3920-3-8-2"
   transform="matrix(0.67119495,-0.64565666,0.74437992,0.77382309,0,0)"
   inkscape:transform-center-x="9.855304"
   inkscape:transform-center-y="18.249152"><tspan
     sodipodi:role="line"
     id="tspan3918-9-1-9"
     x="-17.407822"
     y="344.73779"
     style="font-style:normal;font-variant:normal;font-weight:bold;font-stretch:normal;font-size:16px;font-family:sans-serif;-inkscape-font-specification:'sans-serif, Bold';font-variant-ligatures:normal;font-variant-caps:normal;font-variant-numeric:normal;font-feature-settings:normal;text-align:start;writing-mode:lr-tb;text-anchor:start;fill:#ffffff;stroke-width:1.09596908">TEST</tspan></text>
<text
   xml:space="preserve"
   style="font-style:normal;font-weight:normal;font-size:43.83876038px;line-height:1.25;font-family:sans-serif;letter-spacing:0px;word-spacing:0px;fill:#000000;fill-opacity:1;stroke:none;stroke-width:1.09596908"
   x="184.70726"
   y="277.62344"
   id="text3920-3-8-2-3"
   transform="matrix(0.69655502,-0.61821217,0.71273907,0.80306081,0,0)"
   inkscape:transform-center-x="10.579434"
   inkscape:transform-center-y="17.839115"><tspan
     sodipodi:role="line"
     id="tspan3918-9-1-9-9"
     x="184.70726"
     y="277.62344"
     style="font-style:normal;font-variant:normal;font-weight:bold;font-stretch:normal;font-size:16px;font-family:sans-serif;-inkscape-font-specification:'sans-serif, Bold';font-variant-ligatures:normal;font-variant-caps:normal;font-variant-numeric:normal;font-feature-settings:normal;text-align:start;writing-mode:lr-tb;text-anchor:start;fill:#ffffff;stroke-width:1.09596908">RELEASE</tspan></text>
<text
   xml:space="preserve"
   style="font-style:normal;font-weight:normal;font-size:43.83876038px;line-height:1.25;font-family:sans-serif;letter-spacing:0px;word-spacing:0px;fill:#000000;fill-opacity:1;stroke:none;stroke-width:1.09596908"
   x="354.74539"
   y="-372.08832"
   id="text3920-3-8-2-3-0"
   transform="matrix(0.47382152,0.80179071,-0.92438743,0.54627057,0,0)"
   inkscape:transform-center-x="15.490573"
   inkscape:transform-center-y="-13.791334"><tspan
     sodipodi:role="line"
     id="tspan3918-9-1-9-9-8"
     x="354.74539"
     y="-372.08832"
     style="font-style:normal;font-variant:normal;font-weight:bold;font-stretch:normal;font-size:16px;font-family:sans-serif;-inkscape-font-specification:'sans-serif, Bold';font-variant-ligatures:normal;font-variant-caps:normal;font-variant-numeric:normal;font-feature-settings:normal;text-align:start;writing-mode:lr-tb;text-anchor:start;fill:#ffffff;stroke-width:1.09596908">DEPLOY</tspan></text>
<text
   xml:space="preserve"
   style="font-style:normal;font-weight:normal;font-size:43.83876038px;line-height:1.25;font-family:sans-serif;letter-spacing:0px;word-spacing:0px;fill:#000000;fill-opacity:1;stroke:none;stroke-width:1.09596908"
   x="239.37086"
   y="475.57986"
   id="text3920-3-8-2-3-0-8"
   transform="matrix(0.77716884,-0.51320929,0.59168087,0.89600078,0,0)"
   inkscape:transform-center-x="13.001798"
   inkscape:transform-center-y="16.158957"><tspan
     sodipodi:role="line"
     id="tspan3918-9-1-9-9-8-5"
     x="239.37086"
     y="475.57986"
     style="font-style:normal;font-variant:normal;font-weight:bold;font-stretch:normal;font-size:16px;font-family:sans-serif;-inkscape-font-specification:'sans-serif, Bold';font-variant-ligatures:normal;font-variant-caps:normal;font-variant-numeric:normal;font-feature-settings:normal;text-align:start;writing-mode:lr-tb;text-anchor:start;fill:#ffffff;stroke-width:1.09596908">MONITOR</tspan></text>
</g>
</svg>